<svg width="170" height="60" viewBox="0 0 170 60" fill="none" xmlns="http://www.w3.org/2000/svg">
<path d="M51.3531 33.6846H44.9348L43.6388 36.688H39.8331L46.6011 22.1851H49.6046L56.3931 36.688H52.6491L51.3531 33.6846ZM50.1394 30.8457L48.144 26.1966L46.1486 30.8457H50.1394Z" fill="#2A2A2A"/>
<path d="M57.2518 22.1851H61.037V33.6229H67.2084V36.688H57.2518V22.1851Z" fill="#2A2A2A"/>
<path d="M69.0241 22.1851H76.039C77.6436 22.1851 78.8916 22.5966 79.783 23.4194C80.6744 24.2286 81.1201 25.36 81.1201 26.8137C81.1201 28.2537 80.6676 29.3851 79.7624 30.208C78.871 31.0309 77.6299 31.4423 76.039 31.4423H72.8093V36.688H69.0241V22.1851ZM75.5247 28.6034C76.2241 28.6034 76.7384 28.4594 77.0676 28.1714C77.4104 27.8834 77.5819 27.4377 77.5819 26.8343C77.5819 26.2309 77.4104 25.7851 77.0676 25.4971C76.7384 25.1954 76.2241 25.0446 75.5247 25.0446H72.8093V28.6034H75.5247Z" fill="#2A2A2A"/>
<path d="M96.2763 22.1851V36.688H92.5735V30.8251H86.6489V36.688H82.946V22.1851H86.6489V27.8217H92.5735V22.1851H96.2763Z" fill="#2A2A2A"/>
<path d="M108.668 33.6846H102.25L100.954 36.688H97.1479L103.916 22.1851H106.919L113.708 36.688H109.964L108.668 33.6846ZM107.454 30.8457L105.459 26.1966L103.463 30.8457H107.454Z" fill="#2A2A2A"/>
<path d="M125.698 36.8731C124.615 36.8731 123.545 36.7291 122.489 36.4411C121.433 36.1531 120.576 35.7691 119.918 35.2891L121.09 32.6149C121.79 33.0537 122.537 33.3897 123.333 33.6229C124.128 33.856 124.93 33.9726 125.74 33.9726C126.562 33.9726 127.186 33.8629 127.612 33.6434C128.05 33.4103 128.27 33.088 128.27 32.6766C128.27 32.3063 128.071 32.0046 127.673 31.7714C127.289 31.5383 126.549 31.3051 125.452 31.072C124.094 30.784 123.031 30.4411 122.263 30.0434C121.495 29.6457 120.953 29.1794 120.638 28.6446C120.336 28.1097 120.185 27.4514 120.185 26.6697C120.185 25.7783 120.432 24.9829 120.926 24.2834C121.433 23.5703 122.14 23.0149 123.045 22.6171C123.964 22.2057 125.013 22 126.192 22C127.234 22 128.242 22.1509 129.216 22.4526C130.204 22.7406 130.972 23.1177 131.52 23.584L130.368 26.2583C129.052 25.3531 127.666 24.9006 126.213 24.9006C125.513 24.9006 124.951 25.0377 124.526 25.312C124.101 25.5726 123.888 25.9223 123.888 26.3611C123.888 26.6217 123.964 26.8343 124.114 26.9989C124.265 27.1634 124.546 27.328 124.958 27.4926C125.369 27.6434 125.98 27.8011 126.789 27.9657C128.105 28.2537 129.141 28.6034 129.895 29.0149C130.649 29.4126 131.184 29.8789 131.5 30.4137C131.815 30.9486 131.973 31.5863 131.973 32.3269C131.973 33.7531 131.424 34.8709 130.327 35.68C129.23 36.4754 127.687 36.8731 125.698 36.8731Z" fill="#2A2A2A"/>
<path d="M140.676 26.32C141.883 26.32 142.781 26.6834 143.371 27.4103C143.96 28.1234 144.255 29.2137 144.255 30.6811V36.688H140.593V30.8457C140.593 30.2423 140.484 29.8034 140.264 29.5291C140.059 29.2549 139.743 29.1177 139.318 29.1177C138.769 29.1177 138.331 29.296 138.001 29.6526C137.686 29.9954 137.528 30.4617 137.528 31.0514V36.688H133.867V22.1851H137.528V27.7806C137.899 27.3006 138.351 26.9371 138.886 26.6903C139.421 26.4434 140.017 26.32 140.676 26.32Z" fill="#2A2A2A"/>
<path d="M151.424 36.8526C150.313 36.8526 149.332 36.64 148.482 36.2149C147.645 35.776 146.994 35.1589 146.528 34.3634C146.075 33.568 145.849 32.6354 145.849 31.5657C145.849 30.496 146.075 29.5703 146.528 28.7886C146.994 27.9931 147.645 27.3829 148.482 26.9577C149.319 26.5326 150.299 26.32 151.424 26.32C152.548 26.32 153.529 26.5326 154.365 26.9577C155.202 27.3829 155.847 27.9931 156.299 28.7886C156.765 29.5703 156.999 30.496 156.999 31.5657C156.999 32.6354 156.765 33.568 156.299 34.3634C155.847 35.1589 155.202 35.776 154.365 36.2149C153.529 36.64 152.548 36.8526 151.424 36.8526ZM151.424 34.1166C152.727 34.1166 153.378 33.2663 153.378 31.5657C153.378 29.8651 152.727 29.0149 151.424 29.0149C150.121 29.0149 149.469 29.8651 149.469 31.5657C149.469 33.2663 150.121 34.1166 151.424 34.1166Z" fill="#2A2A2A"/>
<path d="M165.363 26.32C166.227 26.32 166.995 26.5463 167.667 26.9989C168.353 27.4377 168.881 28.0617 169.251 28.8709C169.635 29.68 169.827 30.6057 169.827 31.648C169.827 32.6903 169.635 33.6091 169.251 34.4046C168.881 35.1863 168.36 35.7897 167.688 36.2149C167.016 36.64 166.241 36.8526 165.363 36.8526C164.718 36.8526 164.122 36.7223 163.573 36.4617C163.038 36.2011 162.62 35.8514 162.318 35.4126V40.3909H158.657V26.5669H162.257V27.8629C162.545 27.3829 162.963 27.0057 163.512 26.7314C164.074 26.4571 164.691 26.32 165.363 26.32ZM164.252 34.1166C164.883 34.1166 165.363 33.904 165.692 33.4789C166.035 33.0537 166.206 32.4434 166.206 31.648C166.206 30.8114 166.035 30.1737 165.692 29.7349C165.349 29.2823 164.862 29.056 164.232 29.056C163.601 29.056 163.114 29.2754 162.771 29.7143C162.428 30.1531 162.257 30.784 162.257 31.6069C162.257 32.416 162.428 33.04 162.771 33.4789C163.114 33.904 163.608 34.1166 164.252 34.1166Z" fill="#2A2A2A"/>
<path fill-rule="evenodd" clip-rule="evenodd" d="M19.2748 28.8533C19.2748 28.8533 13.6747 37.9337 9.0833 37.9337C1.05245 37.9337 8.53664 20.635 14.3938 20.635C18.4808 20.635 19.2748 28.8533 19.2748 28.8533V28.8533Z" fill="#F67599"/>
<path fill-rule="evenodd" clip-rule="evenodd" d="M25.9293 40.2729C24.334 41.9705 22.3649 43.2732 20.1784 44.0776C17.9919 44.882 15.648 45.166 13.3326 44.9071C11.0172 44.6482 8.79399 43.8535 6.83923 42.586C4.88446 41.3185 3.25192 39.6131 2.07104 37.6051C3.39867 39.4107 5.65044 40.6145 8.85237 40.6145C16.7401 40.6145 21.2175 34.485 21.2175 34.485C21.2175 34.485 21.6048 39.3294 25.9196 40.2729H25.9293Z" fill="#F67599"/>
<path fill-rule="evenodd" clip-rule="evenodd" d="M28.2917 23.0588C29.4723 25.3145 30.0586 27.8337 29.9954 30.3787C29.9322 32.9238 29.2215 35.4108 27.9305 37.6051C26.9094 37.0323 26.1544 36.0811 25.8284 34.9568L24.1168 29.8293L28.2917 23.0588V23.0588Z" fill="#808080"/>
<path fill-rule="evenodd" clip-rule="evenodd" d="M15.0024 15.013C18.7639 15.0105 22.3885 16.4241 25.1548 18.9725L22.3141 23.5566C21.2858 20.8823 19.1968 18.2047 15.1325 18.2047C6.8088 18.2047 0.63923 27.2916 0.63923 32.9884C0.637396 33.7252 0.731462 34.459 0.919069 35.1715C0.0866864 32.9044 -0.185961 30.4699 0.124289 28.0748C0.434539 25.6798 1.31852 23.3951 2.7011 21.4148C4.08368 19.4345 5.92399 17.8173 8.06563 16.7004C10.2073 15.5836 12.5869 15.0003 15.0024 15V15.013Z" fill="#808080"/>
</svg>
